<?xml version="1.0" encoding="utf-8"?>
<!-- Generator: Adobe Illustrator 24.3.0, SVG Export Plug-In . SVG Version: 6.00 Build 0)  -->
<svg version="1.1" id="Capa_1" xmlns="http://www.w3.org/2000/svg" xmlns:xlink="http://www.w3.org/1999/xlink" x="0px" y="0px"
	 viewBox="0 0 299 300" style="enable-background:new 0 0 299 300;" xml:space="preserve">
<style type="text/css">
	.st0{fill:#ffffff;}
	.st1{fill:#F9004D;}
</style>
<g>
	<polygon class="st0" points="165.9,35 149.5,67.9 133.1,100.7 116.6,133.6 100.2,166.4 83.8,199.3 50.9,265 116.6,265 100.2,297.8 
		1.7,297.8 18.1,265 34.5,232.1 50.9,199.3 67.4,166.4 83.8,133.6 100.2,100.7 116.6,67.9 133.1,35 149.5,2.2 	"/>
	<polygon class="st1" points="297.3,297.8 133.1,297.8 149.5,265 182.4,199.3 198.8,232.1 182.4,265 248.1,265 215.2,199.3 
		198.8,166.4 182.4,133.6 165.9,166.4 149.5,199.3 133.1,232.1 100.2,232.1 116.6,199.3 133.1,166.4 149.5,133.6 165.9,100.7 
		182.4,67.9 198.8,100.7 215.2,133.6 231.6,166.4 248.1,199.3 264.5,232.1 280.9,265 	"/>
</g>
</svg>
